<?xml version="1.0" encoding="UTF-8" standalone="no"?>
<!DOCTYPE svg PUBLIC "-//W3C//DTD SVG 1.1//EN" "http://www.w3.org/Graphics/SVG/1.1/DTD/svg11.dtd">
<svg width="100%" height="100%" viewBox="0 0 3240 1080" version="1.1" xmlns="http://www.w3.org/2000/svg" xmlns:xlink="http://www.w3.org/1999/xlink" xml:space="preserve" xmlns:serif="http://www.serif.com/" style="fill-rule:evenodd;clip-rule:evenodd;stroke-linejoin:round;stroke-miterlimit:2;">
    <g transform="matrix(1,0,0,1,0,33.5545)">
        <g id="文字と背景（ダーク）">
            <g>
                <g transform="matrix(14.0227,0,0,14.0227,-15011.7,-7402.04)">
                    <g transform="matrix(36.5121,0,0,36.5121,1147.18,572.908)">
                        <path d="M0.322,-0.71L0.352,-0.71L0.657,-0L0.62,-0L0.516,-0.245L0.158,-0.245L0.054,-0L0.016,-0L0.322,-0.71ZM0.503,-0.275L0.337,-0.666L0.171,-0.275L0.503,-0.275Z" style="fill:rgb(158,158,158);fill-rule:nonzero;"/>
                    </g>
                    <g transform="matrix(36.5121,0,0,36.5121,1171.6,572.908)">
                        <path d="M0.238,0.01C0.198,0.01 0.161,0.003 0.127,-0.011C0.092,-0.024 0.062,-0.045 0.036,-0.074L0.054,-0.098C0.082,-0.071 0.111,-0.052 0.14,-0.039C0.169,-0.026 0.202,-0.02 0.237,-0.02C0.286,-0.02 0.325,-0.03 0.355,-0.051C0.385,-0.072 0.4,-0.1 0.4,-0.137C0.4,-0.161 0.393,-0.179 0.38,-0.193C0.366,-0.206 0.346,-0.217 0.321,-0.225C0.295,-0.233 0.264,-0.242 0.227,-0.251C0.191,-0.26 0.161,-0.269 0.138,-0.278C0.114,-0.287 0.096,-0.299 0.084,-0.314C0.072,-0.33 0.066,-0.351 0.066,-0.378C0.066,-0.413 0.075,-0.441 0.092,-0.463C0.109,-0.484 0.131,-0.5 0.16,-0.511C0.188,-0.522 0.219,-0.527 0.253,-0.527C0.294,-0.527 0.33,-0.52 0.36,-0.506C0.39,-0.492 0.412,-0.474 0.425,-0.453L0.403,-0.434C0.388,-0.455 0.367,-0.47 0.34,-0.481C0.312,-0.492 0.282,-0.497 0.249,-0.497C0.222,-0.497 0.198,-0.493 0.175,-0.485C0.152,-0.477 0.134,-0.465 0.12,-0.449C0.106,-0.432 0.099,-0.41 0.099,-0.383C0.099,-0.361 0.104,-0.344 0.114,-0.332C0.124,-0.32 0.139,-0.311 0.159,-0.304C0.179,-0.297 0.204,-0.289 0.235,-0.281C0.276,-0.271 0.311,-0.261 0.341,-0.251C0.37,-0.241 0.393,-0.227 0.409,-0.211C0.425,-0.194 0.433,-0.171 0.433,-0.141C0.433,-0.094 0.415,-0.057 0.38,-0.03C0.344,-0.003 0.297,0.01 0.238,0.01Z" style="fill:rgb(158,158,158);fill-rule:nonzero;"/>
                    </g>
                    <g transform="matrix(36.5121,0,0,36.5121,1188.95,572.908)">
                        <path d="M0.297,-0.019C0.296,-0.018 0.29,-0.016 0.281,-0.011C0.272,-0.006 0.26,-0.001 0.246,0.003C0.231,0.008 0.215,0.01 0.196,0.01C0.179,0.01 0.163,0.007 0.148,-0C0.133,-0.007 0.122,-0.017 0.113,-0.03C0.104,-0.043 0.1,-0.059 0.1,-0.077L0.1,-0.489L0.026,-0.489L0.026,-0.519L0.1,-0.519L0.1,-0.698L0.134,-0.698L0.134,-0.519L0.257,-0.519L0.257,-0.489L0.134,-0.489L0.134,-0.082C0.135,-0.062 0.143,-0.047 0.156,-0.037C0.169,-0.027 0.185,-0.022 0.202,-0.022C0.224,-0.022 0.243,-0.026 0.259,-0.034C0.274,-0.041 0.283,-0.046 0.284,-0.047L0.297,-0.019Z" style="fill:rgb(158,158,158);fill-rule:nonzero;"/>
                    </g>
                    <g transform="matrix(36.5121,0,0,36.5121,1199.72,572.908)">
                        <path d="M0.297,0.01C0.262,0.01 0.23,0.003 0.199,-0.012C0.168,-0.026 0.141,-0.046 0.117,-0.07C0.095,-0.096 0.077,-0.125 0.064,-0.158C0.051,-0.191 0.044,-0.226 0.044,-0.263C0.044,-0.311 0.055,-0.356 0.077,-0.395C0.099,-0.435 0.129,-0.467 0.167,-0.491C0.204,-0.515 0.246,-0.527 0.293,-0.527C0.341,-0.527 0.384,-0.515 0.422,-0.491C0.459,-0.466 0.489,-0.434 0.512,-0.394C0.535,-0.354 0.546,-0.309 0.546,-0.26L0.546,-0.252C0.546,-0.249 0.546,-0.247 0.545,-0.244L0.079,-0.244C0.082,-0.202 0.094,-0.164 0.115,-0.13C0.135,-0.096 0.161,-0.069 0.194,-0.049C0.226,-0.029 0.261,-0.019 0.299,-0.019C0.337,-0.019 0.373,-0.029 0.406,-0.049C0.439,-0.068 0.463,-0.093 0.477,-0.124L0.508,-0.116C0.498,-0.092 0.482,-0.07 0.461,-0.051C0.44,-0.032 0.415,-0.017 0.387,-0.006C0.358,0.005 0.328,0.01 0.297,0.01ZM0.078,-0.273L0.512,-0.273C0.509,-0.317 0.498,-0.355 0.478,-0.389C0.459,-0.422 0.433,-0.449 0.401,-0.468C0.369,-0.487 0.333,-0.497 0.294,-0.497C0.255,-0.497 0.22,-0.487 0.189,-0.468C0.157,-0.449 0.131,-0.422 0.112,-0.388C0.092,-0.355 0.081,-0.316 0.078,-0.273Z" style="fill:rgb(158,158,158);fill-rule:nonzero;"/>
                    </g>
                    <g transform="matrix(36.5121,0,0,36.5121,1220.86,572.908)">
                        <path d="M0.314,-0.488C0.267,-0.486 0.225,-0.471 0.19,-0.443C0.154,-0.414 0.129,-0.376 0.115,-0.327L0.115,-0L0.081,-0L0.081,-0.519L0.114,-0.519L0.114,-0.388C0.132,-0.425 0.156,-0.455 0.187,-0.478C0.217,-0.501 0.249,-0.515 0.282,-0.519C0.289,-0.52 0.295,-0.52 0.301,-0.52L0.314,-0.52L0.314,-0.488Z" style="fill:rgb(158,158,158);fill-rule:nonzero;"/>
                    </g>
                    <g transform="matrix(36.5121,0,0,36.5121,1232.1,572.908)">
                        <path d="M0.294,0.01C0.259,0.01 0.227,0.003 0.196,-0.011C0.165,-0.025 0.139,-0.044 0.116,-0.069C0.093,-0.094 0.076,-0.123 0.063,-0.155C0.05,-0.187 0.044,-0.222 0.044,-0.258C0.044,-0.294 0.051,-0.329 0.064,-0.361C0.077,-0.394 0.094,-0.423 0.117,-0.448C0.14,-0.473 0.166,-0.492 0.197,-0.506C0.228,-0.52 0.26,-0.527 0.294,-0.527C0.329,-0.527 0.361,-0.52 0.392,-0.506C0.422,-0.492 0.449,-0.473 0.471,-0.448C0.495,-0.423 0.513,-0.394 0.526,-0.361C0.539,-0.329 0.545,-0.294 0.545,-0.258C0.545,-0.222 0.539,-0.187 0.526,-0.155C0.513,-0.123 0.496,-0.094 0.472,-0.069C0.45,-0.044 0.423,-0.025 0.393,-0.011C0.362,0.003 0.329,0.01 0.294,0.01ZM0.078,-0.257C0.078,-0.213 0.088,-0.174 0.107,-0.138C0.126,-0.103 0.152,-0.074 0.185,-0.053C0.218,-0.032 0.254,-0.022 0.293,-0.022C0.333,-0.022 0.369,-0.033 0.402,-0.054C0.435,-0.075 0.461,-0.104 0.481,-0.14C0.5,-0.177 0.51,-0.216 0.51,-0.259C0.51,-0.302 0.5,-0.341 0.481,-0.377C0.461,-0.413 0.435,-0.442 0.402,-0.463C0.369,-0.484 0.333,-0.495 0.294,-0.495C0.255,-0.495 0.22,-0.484 0.187,-0.463C0.154,-0.441 0.127,-0.412 0.108,-0.376C0.088,-0.339 0.078,-0.3 0.078,-0.257Z" style="fill:rgb(158,158,158);fill-rule:nonzero;"/>
                    </g>
                    <g transform="matrix(36.5121,0,0,36.5121,1253.61,572.908)">
                        <path d="M0.081,-0L0.081,-0.52L0.115,-0.52L0.115,-0L0.081,-0ZM0.081,-0.646L0.081,-0.73L0.115,-0.73L0.115,-0.646L0.081,-0.646Z" style="fill:rgb(158,158,158);fill-rule:nonzero;"/>
                    </g>
                    <g transform="matrix(36.5121,0,0,36.5121,1260.8,572.908)">
                        <path d="M0.044,-0.258C0.044,-0.306 0.055,-0.351 0.076,-0.391C0.097,-0.432 0.125,-0.465 0.161,-0.49C0.197,-0.515 0.238,-0.527 0.284,-0.527C0.331,-0.527 0.372,-0.515 0.408,-0.49C0.444,-0.465 0.472,-0.435 0.492,-0.401L0.492,-0.73L0.526,-0.73L0.526,-0.052C0.526,-0.045 0.528,-0.04 0.531,-0.036C0.534,-0.032 0.539,-0.03 0.544,-0.03L0.544,-0C0.536,0.001 0.53,0 0.526,-0.001C0.517,-0.004 0.509,-0.009 0.503,-0.017C0.497,-0.025 0.494,-0.034 0.494,-0.043L0.494,-0.106C0.473,-0.071 0.444,-0.043 0.407,-0.022C0.37,-0.001 0.333,0.01 0.294,0.01C0.258,0.01 0.225,0.003 0.194,-0.012C0.163,-0.027 0.137,-0.048 0.115,-0.073C0.092,-0.099 0.075,-0.128 0.063,-0.16C0.05,-0.192 0.044,-0.224 0.044,-0.258ZM0.492,-0.172L0.492,-0.35C0.483,-0.378 0.467,-0.402 0.445,-0.424C0.423,-0.445 0.398,-0.463 0.371,-0.476C0.344,-0.489 0.316,-0.495 0.289,-0.495C0.257,-0.495 0.228,-0.488 0.203,-0.475C0.177,-0.462 0.155,-0.444 0.136,-0.421C0.117,-0.399 0.103,-0.373 0.094,-0.345C0.084,-0.317 0.079,-0.287 0.079,-0.258C0.079,-0.226 0.085,-0.196 0.096,-0.168C0.107,-0.14 0.122,-0.115 0.142,-0.092C0.163,-0.07 0.186,-0.053 0.213,-0.04C0.239,-0.028 0.267,-0.022 0.298,-0.022C0.317,-0.022 0.338,-0.026 0.36,-0.033C0.381,-0.041 0.402,-0.052 0.422,-0.066C0.441,-0.08 0.457,-0.096 0.47,-0.114C0.483,-0.133 0.49,-0.152 0.492,-0.172Z" style="fill:rgb(158,158,158);fill-rule:nonzero;"/>
                    </g>
                </g>
                <g transform="matrix(14.0227,0,0,14.0227,-15021.3,-7195.34)">
                    <g transform="matrix(13.692,0,0,13.692,1147.18,572.908)">
                        <path d="M0.093,-0L0.093,-0.71L0.555,-0.71L0.555,-0.664L0.144,-0.664L0.144,-0.382L0.493,-0.382L0.493,-0.338L0.144,-0.338L0.144,-0L0.093,-0Z" style="fill:rgb(158,158,158);fill-rule:nonzero;"/>
                    </g>
                    <g transform="matrix(13.692,0,0,13.692,1154.86,572.908)">
                        <path d="M0.296,0.01C0.259,0.01 0.226,0.003 0.195,-0.011C0.164,-0.025 0.137,-0.044 0.114,-0.069C0.091,-0.094 0.074,-0.123 0.061,-0.155C0.048,-0.188 0.042,-0.222 0.042,-0.258C0.042,-0.295 0.048,-0.329 0.061,-0.361C0.074,-0.393 0.092,-0.422 0.115,-0.447C0.138,-0.472 0.165,-0.491 0.196,-0.506C0.227,-0.52 0.26,-0.527 0.296,-0.527C0.332,-0.527 0.365,-0.52 0.396,-0.506C0.427,-0.491 0.454,-0.472 0.477,-0.447C0.5,-0.422 0.518,-0.393 0.531,-0.361C0.544,-0.329 0.55,-0.295 0.55,-0.258C0.55,-0.222 0.544,-0.188 0.531,-0.155C0.518,-0.123 0.5,-0.094 0.477,-0.069C0.455,-0.044 0.428,-0.025 0.397,-0.011C0.366,0.003 0.332,0.01 0.296,0.01ZM0.092,-0.256C0.092,-0.216 0.101,-0.179 0.119,-0.145C0.138,-0.111 0.162,-0.085 0.193,-0.065C0.224,-0.045 0.258,-0.035 0.295,-0.035C0.332,-0.035 0.367,-0.045 0.398,-0.065C0.429,-0.086 0.453,-0.113 0.471,-0.147C0.49,-0.181 0.499,-0.219 0.499,-0.259C0.499,-0.299 0.49,-0.337 0.471,-0.37C0.453,-0.404 0.429,-0.431 0.398,-0.452C0.367,-0.472 0.333,-0.482 0.296,-0.482C0.259,-0.482 0.225,-0.472 0.194,-0.451C0.163,-0.431 0.139,-0.403 0.12,-0.37C0.101,-0.336 0.092,-0.298 0.092,-0.256Z" style="fill:rgb(158,158,158);fill-rule:nonzero;"/>
                    </g>
                    <g transform="matrix(13.692,0,0,13.692,1162.96,572.908)">
                        <path d="M0.324,-0.475C0.277,-0.474 0.236,-0.46 0.202,-0.434C0.167,-0.407 0.142,-0.371 0.128,-0.325L0.128,-0L0.078,-0L0.078,-0.519L0.126,-0.519L0.126,-0.392C0.144,-0.429 0.168,-0.459 0.198,-0.482C0.228,-0.504 0.26,-0.518 0.293,-0.521C0.3,-0.522 0.306,-0.522 0.311,-0.522L0.324,-0.522L0.324,-0.475Z" style="fill:rgb(158,158,158);fill-rule:nonzero;"/>
                    </g>
                    <g transform="matrix(13.692,0,0,13.692,1170.82,572.908)">
                        <path d="M0.736,-0L0.736,-0.611L0.457,-0.133L0.423,-0.133L0.144,-0.611L0.144,-0L0.093,-0L0.093,-0.71L0.144,-0.71L0.44,-0.202L0.736,-0.71L0.787,-0.71L0.787,-0L0.736,-0Z" style="fill:rgb(158,158,158);fill-rule:nonzero;"/>
                    </g>
                    <g transform="matrix(13.692,0,0,13.692,1182.8,572.908)">
                        <path d="M0.035,-0.149C0.035,-0.181 0.044,-0.208 0.063,-0.231C0.082,-0.254 0.107,-0.272 0.14,-0.285C0.173,-0.298 0.21,-0.304 0.253,-0.304C0.28,-0.304 0.307,-0.302 0.336,-0.297C0.365,-0.292 0.39,-0.286 0.413,-0.278L0.413,-0.327C0.413,-0.375 0.399,-0.413 0.372,-0.441C0.344,-0.47 0.306,-0.484 0.257,-0.484C0.231,-0.484 0.204,-0.479 0.176,-0.468C0.148,-0.457 0.119,-0.442 0.09,-0.422L0.069,-0.458C0.103,-0.481 0.136,-0.498 0.168,-0.509C0.199,-0.521 0.231,-0.527 0.262,-0.527C0.324,-0.527 0.373,-0.509 0.409,-0.472C0.445,-0.436 0.463,-0.386 0.463,-0.323L0.463,-0.066C0.463,-0.058 0.465,-0.052 0.469,-0.048C0.472,-0.044 0.478,-0.042 0.485,-0.041L0.485,-0C0.479,0.001 0.474,0.001 0.47,0.001C0.466,0.001 0.463,0.001 0.46,0.001C0.447,-0.001 0.438,-0.006 0.431,-0.015C0.424,-0.024 0.42,-0.033 0.419,-0.044L0.419,-0.085C0.395,-0.055 0.364,-0.032 0.327,-0.015C0.289,0.002 0.249,0.01 0.208,0.01C0.175,0.01 0.146,0.003 0.119,-0.011C0.093,-0.025 0.073,-0.044 0.058,-0.068C0.043,-0.093 0.035,-0.12 0.035,-0.149ZM0.393,-0.107C0.4,-0.115 0.405,-0.124 0.408,-0.132C0.411,-0.14 0.413,-0.147 0.413,-0.153L0.413,-0.239C0.389,-0.248 0.364,-0.255 0.338,-0.26C0.312,-0.265 0.285,-0.267 0.258,-0.267C0.206,-0.267 0.164,-0.257 0.132,-0.236C0.099,-0.216 0.083,-0.188 0.083,-0.152C0.083,-0.131 0.089,-0.11 0.1,-0.092C0.111,-0.073 0.127,-0.058 0.148,-0.047C0.168,-0.036 0.191,-0.03 0.218,-0.03C0.255,-0.03 0.29,-0.037 0.322,-0.051C0.353,-0.066 0.377,-0.084 0.393,-0.107Z" style="fill:rgb(158,158,158);fill-rule:nonzero;"/>
                    </g>
                    <g transform="matrix(13.692,0,0,13.692,1190.15,572.908)">
                        <path d="M0.242,0.01C0.201,0.01 0.162,0.003 0.127,-0.011C0.092,-0.025 0.061,-0.046 0.034,-0.075L0.057,-0.11C0.086,-0.083 0.115,-0.063 0.144,-0.051C0.173,-0.038 0.205,-0.032 0.24,-0.032C0.285,-0.032 0.321,-0.041 0.348,-0.06C0.376,-0.078 0.39,-0.104 0.39,-0.137C0.39,-0.16 0.384,-0.177 0.371,-0.19C0.358,-0.202 0.339,-0.212 0.315,-0.22C0.29,-0.227 0.261,-0.235 0.226,-0.244C0.191,-0.253 0.161,-0.263 0.137,-0.273C0.112,-0.283 0.094,-0.296 0.082,-0.312C0.07,-0.328 0.064,-0.349 0.064,-0.377C0.064,-0.41 0.073,-0.439 0.09,-0.461C0.107,-0.483 0.13,-0.5 0.159,-0.511C0.188,-0.522 0.22,-0.527 0.255,-0.527C0.296,-0.527 0.331,-0.52 0.362,-0.507C0.392,-0.494 0.415,-0.476 0.431,-0.454L0.404,-0.422C0.387,-0.443 0.366,-0.459 0.339,-0.469C0.312,-0.48 0.283,-0.485 0.251,-0.485C0.227,-0.485 0.204,-0.482 0.183,-0.475C0.162,-0.468 0.145,-0.458 0.132,-0.443C0.118,-0.428 0.112,-0.408 0.112,-0.382C0.112,-0.362 0.117,-0.347 0.127,-0.336C0.136,-0.324 0.151,-0.315 0.17,-0.308C0.189,-0.301 0.213,-0.294 0.242,-0.286C0.283,-0.276 0.318,-0.266 0.347,-0.255C0.376,-0.244 0.399,-0.231 0.415,-0.214C0.431,-0.197 0.439,-0.173 0.439,-0.142C0.439,-0.095 0.421,-0.058 0.385,-0.031C0.349,-0.004 0.301,0.01 0.242,0.01Z" style="fill:rgb(158,158,158);fill-rule:nonzero;"/>
                    </g>
                    <g transform="matrix(13.692,0,0,13.692,1196.71,572.908)">
                        <path d="M0.31,-0.021C0.307,-0.02 0.3,-0.016 0.29,-0.011C0.28,-0.006 0.267,-0.001 0.252,0.003C0.237,0.008 0.22,0.01 0.201,0.01C0.183,0.01 0.166,0.006 0.151,-0.001C0.135,-0.008 0.122,-0.018 0.113,-0.032C0.104,-0.046 0.099,-0.063 0.099,-0.084L0.099,-0.478L0.026,-0.478L0.026,-0.519L0.099,-0.519L0.099,-0.697L0.149,-0.697L0.149,-0.519L0.27,-0.519L0.27,-0.478L0.149,-0.478L0.149,-0.095C0.15,-0.076 0.157,-0.061 0.17,-0.052C0.183,-0.042 0.197,-0.037 0.214,-0.037C0.235,-0.037 0.253,-0.041 0.268,-0.048C0.283,-0.055 0.292,-0.059 0.295,-0.061L0.31,-0.021Z" style="fill:rgb(158,158,158);fill-rule:nonzero;"/>
                    </g>
                    <g transform="matrix(13.692,0,0,13.692,1200.96,572.908)">
                        <path d="M0.296,0.01C0.259,0.01 0.226,0.003 0.195,-0.011C0.164,-0.025 0.137,-0.044 0.114,-0.069C0.091,-0.094 0.074,-0.123 0.061,-0.155C0.048,-0.188 0.042,-0.222 0.042,-0.258C0.042,-0.295 0.048,-0.329 0.061,-0.361C0.074,-0.393 0.092,-0.422 0.115,-0.447C0.138,-0.472 0.165,-0.491 0.196,-0.506C0.227,-0.52 0.26,-0.527 0.296,-0.527C0.332,-0.527 0.365,-0.52 0.396,-0.506C0.427,-0.491 0.454,-0.472 0.477,-0.447C0.5,-0.422 0.518,-0.393 0.531,-0.361C0.544,-0.329 0.55,-0.295 0.55,-0.258C0.55,-0.222 0.544,-0.188 0.531,-0.155C0.518,-0.123 0.5,-0.094 0.477,-0.069C0.455,-0.044 0.428,-0.025 0.397,-0.011C0.366,0.003 0.332,0.01 0.296,0.01ZM0.092,-0.256C0.092,-0.216 0.101,-0.179 0.119,-0.145C0.138,-0.111 0.162,-0.085 0.193,-0.065C0.224,-0.045 0.258,-0.035 0.295,-0.035C0.332,-0.035 0.367,-0.045 0.398,-0.065C0.429,-0.086 0.453,-0.113 0.471,-0.147C0.49,-0.181 0.499,-0.219 0.499,-0.259C0.499,-0.299 0.49,-0.337 0.471,-0.37C0.453,-0.404 0.429,-0.431 0.398,-0.452C0.367,-0.472 0.333,-0.482 0.296,-0.482C0.259,-0.482 0.225,-0.472 0.194,-0.451C0.163,-0.431 0.139,-0.403 0.12,-0.37C0.101,-0.336 0.092,-0.298 0.092,-0.256Z" style="fill:rgb(158,158,158);fill-rule:nonzero;"/>
                    </g>
                    <g transform="matrix(13.692,0,0,13.692,1209.06,572.908)">
                        <path d="M0.042,-0.258C0.042,-0.306 0.052,-0.351 0.073,-0.392C0.094,-0.432 0.122,-0.465 0.158,-0.49C0.194,-0.515 0.235,-0.527 0.281,-0.527C0.326,-0.527 0.367,-0.515 0.402,-0.491C0.437,-0.467 0.464,-0.438 0.484,-0.405L0.484,-0.73L0.534,-0.73L0.534,-0.066C0.534,-0.058 0.536,-0.052 0.54,-0.048C0.543,-0.044 0.548,-0.042 0.555,-0.041L0.555,-0C0.544,0.001 0.536,0.002 0.531,0.001C0.519,-0.001 0.509,-0.007 0.501,-0.016C0.493,-0.025 0.489,-0.035 0.489,-0.046L0.489,-0.104C0.468,-0.069 0.439,-0.042 0.403,-0.021C0.367,-0 0.33,0.01 0.292,0.01C0.256,0.01 0.223,0.003 0.192,-0.012C0.161,-0.027 0.135,-0.047 0.113,-0.073C0.09,-0.098 0.073,-0.126 0.061,-0.158C0.048,-0.19 0.042,-0.223 0.042,-0.258ZM0.484,-0.174L0.484,-0.345C0.475,-0.37 0.46,-0.393 0.439,-0.414C0.418,-0.435 0.395,-0.451 0.369,-0.464C0.343,-0.476 0.317,-0.482 0.292,-0.482C0.262,-0.482 0.235,-0.476 0.211,-0.463C0.186,-0.45 0.165,-0.434 0.148,-0.412C0.13,-0.391 0.116,-0.367 0.107,-0.34C0.098,-0.313 0.093,-0.286 0.093,-0.257C0.093,-0.228 0.098,-0.2 0.109,-0.173C0.12,-0.146 0.135,-0.122 0.154,-0.101C0.172,-0.08 0.195,-0.064 0.22,-0.052C0.245,-0.041 0.272,-0.035 0.301,-0.035C0.319,-0.035 0.338,-0.039 0.359,-0.046C0.379,-0.053 0.398,-0.063 0.417,-0.076C0.435,-0.089 0.45,-0.104 0.463,-0.121C0.475,-0.138 0.482,-0.156 0.484,-0.174Z" style="fill:rgb(158,158,158);fill-rule:nonzero;"/>
                    </g>
                    <g transform="matrix(13.692,0,0,13.692,1217.48,572.908)">
                        <path d="M0.296,0.01C0.259,0.01 0.226,0.003 0.195,-0.011C0.164,-0.025 0.137,-0.044 0.114,-0.069C0.091,-0.094 0.074,-0.123 0.061,-0.155C0.048,-0.188 0.042,-0.222 0.042,-0.258C0.042,-0.295 0.048,-0.329 0.061,-0.361C0.074,-0.393 0.092,-0.422 0.115,-0.447C0.138,-0.472 0.165,-0.491 0.196,-0.506C0.227,-0.52 0.26,-0.527 0.296,-0.527C0.332,-0.527 0.365,-0.52 0.396,-0.506C0.427,-0.491 0.454,-0.472 0.477,-0.447C0.5,-0.422 0.518,-0.393 0.531,-0.361C0.544,-0.329 0.55,-0.295 0.55,-0.258C0.55,-0.222 0.544,-0.188 0.531,-0.155C0.518,-0.123 0.5,-0.094 0.477,-0.069C0.455,-0.044 0.428,-0.025 0.397,-0.011C0.366,0.003 0.332,0.01 0.296,0.01ZM0.092,-0.256C0.092,-0.216 0.101,-0.179 0.119,-0.145C0.138,-0.111 0.162,-0.085 0.193,-0.065C0.224,-0.045 0.258,-0.035 0.295,-0.035C0.332,-0.035 0.367,-0.045 0.398,-0.065C0.429,-0.086 0.453,-0.113 0.471,-0.147C0.49,-0.181 0.499,-0.219 0.499,-0.259C0.499,-0.299 0.49,-0.337 0.471,-0.37C0.453,-0.404 0.429,-0.431 0.398,-0.452C0.367,-0.472 0.333,-0.482 0.296,-0.482C0.259,-0.482 0.225,-0.472 0.194,-0.451C0.163,-0.431 0.139,-0.403 0.12,-0.37C0.101,-0.336 0.092,-0.298 0.092,-0.256Z" style="fill:rgb(158,158,158);fill-rule:nonzero;"/>
                    </g>
                    <g transform="matrix(13.692,0,0,13.692,1225.59,572.908)">
                        <path d="M0.503,-0L0.453,-0L0.453,-0.289C0.453,-0.355 0.444,-0.404 0.425,-0.435C0.406,-0.466 0.375,-0.481 0.334,-0.481C0.305,-0.481 0.276,-0.474 0.248,-0.46C0.219,-0.446 0.195,-0.427 0.173,-0.403C0.153,-0.379 0.137,-0.351 0.128,-0.321L0.128,-0L0.078,-0L0.078,-0.519L0.125,-0.519L0.125,-0.395C0.139,-0.421 0.158,-0.444 0.181,-0.464C0.204,-0.483 0.23,-0.499 0.259,-0.51C0.288,-0.521 0.317,-0.527 0.348,-0.527C0.377,-0.527 0.401,-0.522 0.421,-0.512C0.44,-0.501 0.456,-0.486 0.469,-0.467C0.481,-0.448 0.49,-0.424 0.495,-0.396C0.5,-0.367 0.503,-0.334 0.503,-0.298L0.503,-0Z" style="fill:rgb(158,158,158);fill-rule:nonzero;"/>
                    </g>
                </g>
            </g>
        </g>
    </g>
    <g id="ロゴ1" transform="matrix(0.876219,0,0,0.876219,96.842,66.842)">
        <path d="M540,740.532L293.13,919.894L387.426,629.681L445.704,450.319L540,160.106L634.296,450.319L692.574,629.681L786.87,919.894L540,740.532Z" style="fill:url(#_Linear1);"/>
        <path d="M669.749,450.319L939.444,450.319L721.257,608.842L669.749,450.319Z" style="fill:url(#_Linear2);"/>
        <path d="M358.743,608.842L140.556,450.319L410.251,450.319L358.743,608.842Z" style="fill:url(#_Linear3);"/>
    </g>
    <defs>
        <linearGradient id="_Linear1" x1="0" y1="0" x2="1" y2="0" gradientUnits="userSpaceOnUse" gradientTransform="matrix(319.169,-433.301,433.301,319.169,485.949,763.281)"><stop offset="0" style="stop-color:rgb(38,198,218);stop-opacity:1"/><stop offset="0.2" style="stop-color:rgb(60,161,208);stop-opacity:1"/><stop offset="0.41" style="stop-color:rgb(82,124,197);stop-opacity:1"/><stop offset="1" style="stop-color:rgb(92,107,192);stop-opacity:1"/></linearGradient>
        <linearGradient id="_Linear2" x1="0" y1="0" x2="1" y2="0" gradientUnits="userSpaceOnUse" gradientTransform="matrix(319.169,-433.301,433.301,319.169,485.949,763.281)"><stop offset="0" style="stop-color:rgb(38,198,218);stop-opacity:1"/><stop offset="0.2" style="stop-color:rgb(60,161,208);stop-opacity:1"/><stop offset="0.41" style="stop-color:rgb(82,124,197);stop-opacity:1"/><stop offset="1" style="stop-color:rgb(92,107,192);stop-opacity:1"/></linearGradient>
        <linearGradient id="_Linear3" x1="0" y1="0" x2="1" y2="0" gradientUnits="userSpaceOnUse" gradientTransform="matrix(319.169,-433.301,433.301,319.169,485.949,763.281)"><stop offset="0" style="stop-color:rgb(38,198,218);stop-opacity:1"/><stop offset="0.2" style="stop-color:rgb(60,161,208);stop-opacity:1"/><stop offset="0.41" style="stop-color:rgb(82,124,197);stop-opacity:1"/><stop offset="1" style="stop-color:rgb(92,107,192);stop-opacity:1"/></linearGradient>
    </defs>
</svg>
